<svg version="1.1" id="Layer_1" xmlns="http://www.w3.org/2000/svg" xmlns:xlink="http://www.w3.org/1999/xlink" x="0px" y="0px"
	 width="100%" viewBox="0 0 920 458" enable-background="new 0 0 920 458" xml:space="preserve">
	<g fill="whitesmoke" stroke="none">
<path fill="none" stroke="none"
d="M531.000000,459.000000 
	C354.000031,459.000000 177.500061,459.000000 1.000071,459.000000 
	C1.000047,306.333405 1.000047,153.666779 1.000024,1.000133 
	C307.666534,1.000088 614.333069,1.000088 920.999756,1.000044 
	C920.999817,153.666519 920.999817,306.333038 920.999878,458.999786 
	C791.166687,459.000000 661.333313,459.000000 531.000000,459.000000 
M223.105759,430.267059 
	C223.187943,430.314758 223.270126,430.362457 223.352295,430.410156 
	C223.235474,430.273041 223.118652,430.135895 223.017822,429.209656 
	C223.011444,423.747498 223.004623,418.285309 222.998825,412.823151 
	C222.994843,409.076416 223.372696,405.276703 222.860580,401.600891 
	C222.495407,398.979828 220.934738,396.525360 219.730652,393.077728 
	C220.553711,378.280273 221.354828,363.481537 222.209793,348.685944 
	C222.594025,342.036560 222.858963,335.364105 223.709396,328.770691 
	C223.892075,327.354431 226.368042,326.233978 227.787582,324.977234 
	C228.858078,326.296997 230.789368,327.564728 230.872696,328.944122 
	C232.780487,360.523499 234.481705,392.115295 236.235306,423.704010 
	C236.549057,429.355743 236.662186,435.039459 237.418365,440.634003 
	C237.669830,442.494385 239.643936,444.121887 240.830505,445.855896 
	C242.030380,444.178375 243.913071,442.637451 244.281891,440.793640 
	C244.959961,437.403809 244.772629,433.836700 244.901428,430.341827 
	C245.999100,400.560089 247.086761,370.777985 248.961304,340.989563 
	C252.981094,341.047546 252.832565,337.766327 252.899109,335.385834 
	C253.130432,327.109924 253.014023,318.823456 252.963547,310.541382 
	C252.953812,308.942902 252.175369,307.217865 252.570038,305.775116 
	C253.437683,302.603302 254.828522,299.574615 256.441559,295.344788 
	C253.193756,296.199768 251.667480,296.601562 249.994141,296.090363 
	C250.160095,292.095825 249.955566,288.043854 250.563889,284.117859 
	C252.163773,273.792755 247.913635,266.867126 238.897980,262.278564 
	C232.941574,259.247040 227.162003,255.863312 221.168823,252.910034 
	C213.720886,249.239899 206.340866,245.268738 198.549301,242.505127 
	C190.795197,239.754776 190.615616,240.341263 190.991257,231.929520 
	C191.164993,228.039413 192.537521,225.454437 196.994781,226.012009 
	C200.207367,226.413879 203.398071,227.179031 206.616135,227.295532 
	C209.790497,227.410446 213.033768,227.170273 216.158707,226.601715 
	C218.567078,226.163544 220.820938,224.329453 223.175644,224.263443 
	C227.329834,224.147034 229.586685,222.544678 230.305527,218.492432 
	C230.574692,216.975052 231.181473,215.517578 231.213211,215.413483 
	C234.446823,214.794266 237.330734,215.085266 238.638504,213.787720 
	C240.457428,211.983032 241.106583,208.993118 242.235046,206.500839 
	C243.052032,204.696457 243.327271,202.083252 244.716370,201.195297 
	C252.255127,196.376297 252.672821,195.752518 250.346466,187.495575 
	C259.521301,182.344452 261.082550,180.106674 258.957520,172.236847 
	C258.033752,168.815674 259.369019,166.977554 261.394714,165.194962 
	C268.258148,159.155273 266.572662,155.313828 261.962708,150.839386 
	C263.277435,146.273529 266.528076,141.192780 265.160828,138.278824 
	C263.106079,133.899734 263.786469,130.559921 264.647247,126.622971 
	C264.842529,125.729897 264.594482,124.660385 264.299286,123.753914 
	C263.234497,120.484337 260.911926,117.153847 261.172882,114.022041 
	C261.698608,107.712517 259.886414,102.876923 255.307755,98.902313 
	C258.883240,91.588058 255.624207,86.068344 250.246002,84.330460 
	C246.353134,83.072548 245.133362,80.546860 245.205917,77.885117 
	C245.366943,71.977310 242.769379,70.271660 237.468903,70.983353 
	C236.691895,71.087669 235.868011,70.842987 235.091492,70.762444 
	C234.754150,69.814041 234.394943,69.049484 234.209854,68.244873 
	C232.754486,61.918472 230.621475,59.995064 224.229156,58.782509 
	C223.288971,58.604160 222.328827,57.409130 221.785568,56.452904 
	C219.339569,52.147530 216.952957,48.041809 210.804565,49.094322 
	C209.690628,49.285011 207.864471,48.370377 207.157913,47.393848 
	C202.297287,40.675999 198.825104,39.784760 193.196655,43.075348 
	C189.981934,41.348301 187.406143,38.823891 185.011169,38.985165 
	C182.396286,39.161240 179.948822,41.823948 177.414017,43.411766 
	C173.264130,37.555843 170.805008,37.225403 164.512512,41.194309 
	C163.278656,41.972542 161.185181,41.310032 159.503860,41.473495 
	C156.369888,41.778194 151.175797,41.285336 150.525940,42.754852 
	C148.870285,46.498672 146.500595,46.076344 143.857895,45.759541 
	C139.175049,45.198166 136.314896,46.888962 135.430557,51.647827 
	C135.257843,52.577305 134.813278,53.456264 134.776581,53.560001 
	C131.102417,54.571125 127.264328,54.560303 125.240120,56.471058 
	C123.016273,58.570267 122.462738,62.438961 121.065910,65.815964 
	C117.297867,65.817505 112.764145,65.442505 110.995613,70.356560 
	C109.695869,73.968025 109.018410,77.803452 108.011414,81.743408 
	C98.257141,82.728127 94.829018,87.395676 98.802666,95.520569 
	C97.391937,96.606377 95.975075,97.803474 94.453003,98.847145 
	C90.828186,101.332634 89.895866,107.535065 92.487900,111.098053 
	C93.964859,113.128258 94.515060,114.641785 91.215126,116.297485 
	C85.668030,119.080666 85.439606,121.998550 88.898026,127.174309 
	C89.244102,127.692238 88.631096,129.423172 87.959663,129.952789 
	C84.493141,132.687180 82.562691,135.287216 85.769096,139.790009 
	C86.814766,141.258453 86.546371,144.682755 85.524956,146.413391 
	C82.351013,151.791107 82.377762,156.042297 87.345978,159.830902 
	C90.337685,162.112289 90.591095,164.160324 89.620979,167.504578 
	C88.604630,171.008224 87.294525,175.377808 92.251320,177.200348 
	C95.984756,178.573090 97.223389,180.731888 96.963867,184.562241 
	C96.614182,189.723373 98.756310,193.260117 103.866760,195.481216 
	C106.029373,196.421112 107.990692,199.453552 108.654610,201.910263 
	C110.740242,209.627762 110.823212,210.016251 117.275215,211.134064 
	C119.849091,215.146194 121.147934,219.626907 123.913406,220.885803 
	C127.727318,222.621948 131.291458,224.193558 134.548615,226.966385 
	C136.024719,228.223022 138.950226,228.082565 141.207977,228.039429 
	C144.130463,227.983582 147.055344,227.063263 149.953812,227.174789 
	C151.318665,227.227310 153.531387,228.598602 153.810684,229.748596 
	C155.739700,237.690704 153.926254,240.395630 146.043243,242.547852 
	C142.728104,243.452942 139.199173,244.045380 136.221542,245.632141 
	C125.196892,251.506989 114.461594,257.926300 103.418701,263.764923 
	C96.452545,267.448059 93.947304,273.113770 94.239418,280.542725 
	C94.455162,286.029266 94.652893,291.516479 94.214630,296.882843 
	C93.287056,296.174957 92.359482,295.467102 91.587013,294.877594 
	C88.764603,300.269958 92.637390,305.092987 91.598274,310.690125 
	C90.106720,318.724274 91.606659,327.343170 92.098061,335.696655 
	C92.230469,337.947449 92.108551,341.032104 96.054596,341.897858 
	C96.345757,347.714233 96.662674,353.529480 96.923668,359.347198 
	C98.131660,386.274292 99.257950,413.205475 100.659271,440.122406 
	C100.761269,442.081635 102.818390,443.939056 103.966530,445.843811 
	C105.228035,444.017700 107.420532,442.274323 107.591438,440.351257 
	C108.371155,431.577942 108.559364,422.753021 109.003517,413.948792 
	C110.411476,386.039581 111.828621,358.130768 113.275650,330.223541 
	C113.408356,327.664276 113.720886,325.108215 117.227570,324.966278 
	C121.024559,324.812622 121.525116,327.433197 121.648987,330.240967 
	C122.763062,355.493439 123.840775,380.747498 124.310486,405.900726 
	C123.673042,405.230957 123.035606,404.561188 122.398170,403.891418 
	C124.308525,414.635406 119.138840,425.520721 122.554817,436.037048 
	C124.334488,435.160431 125.513206,434.579834 126.930504,434.858948 
	C127.088516,437.346466 126.874512,439.940582 127.544952,442.281311 
	C127.943069,443.671295 129.734558,444.662170 130.899582,445.832458 
	C131.981171,444.623260 133.753174,443.544098 134.010162,442.179596 
	C134.682724,438.608551 134.783432,434.917084 134.952774,431.266205 
	C135.791809,413.178101 136.579346,395.087585 138.023834,376.966614 
	C138.535095,376.670990 139.046356,376.375366 139.557602,376.079742 
	C138.940384,375.687958 138.323166,375.296143 137.509293,374.264679 
	C137.631485,373.844269 137.753677,373.423889 138.615585,372.921234 
	C139.850372,371.487274 141.085159,370.053314 142.611359,368.280945 
	C142.885727,370.578308 143.111404,372.467865 143.242737,373.567535 
	C145.714447,373.399902 147.789871,373.259155 150.035355,373.877472 
	C151.373184,396.322144 152.644836,418.771393 154.186646,441.202057 
	C154.298340,442.826843 156.375427,444.316559 157.538712,445.869049 
	C158.708252,444.355865 160.671829,442.953278 160.900848,441.309082 
	C161.634109,436.044861 161.798401,430.694641 162.050095,425.371338 
	C162.891190,407.583160 163.674835,389.792267 165.350250,371.998352 
	C170.073456,372.000275 174.796646,372.002228 179.795334,372.900055 
	C180.562561,386.366608 181.298386,399.835022 182.107681,413.299042 
	C182.677155,422.773590 183.214264,432.254700 184.109070,441.700317 
	C184.248840,443.175903 186.220276,444.477997 187.344742,445.860291 
	C188.529831,444.515259 190.123611,443.341278 190.779404,441.774689 
	C191.376907,440.347382 190.908081,438.491608 190.992340,436.828888 
	C192.036789,416.217926 193.096436,395.607727 194.860138,374.977905 
	C196.179504,374.138824 197.498856,373.299713 198.936310,372.385529 
	C199.673386,373.060425 200.479736,373.798737 201.405518,374.646423 
	C202.852890,371.703400 200.196213,366.855988 206.125580,367.862610 
	C206.801422,379.153503 207.446564,390.446320 208.161133,401.734741 
	C209.001907,415.017029 209.811203,428.303070 210.905075,441.565125 
	C211.028351,443.059601 212.906052,444.409363 213.970200,445.826263 
	C215.224045,444.371124 217.067764,443.098572 217.588440,441.416473 
	C218.303711,439.105713 218.016907,436.484802 218.872787,433.996643 
	C219.727158,433.272278 220.613815,432.581940 221.424927,431.811981 
	C222.002274,431.263977 222.477798,430.608673 223.105759,430.267059 
M729.022217,251.764893 
	C724.969482,235.881668 720.916748,219.998444 716.932983,204.385590 
	C710.722534,204.385590 704.995972,204.385590 699.355103,204.385590 
	C699.355103,234.363037 699.355103,263.945160 699.355103,293.647827 
	C703.599792,293.647827 707.624268,293.647827 712.059814,293.647827 
	C712.059814,273.289795 712.059814,253.290375 712.059814,233.290970 
	C712.445190,233.225662 712.830627,233.160355 713.216003,233.095047 
	C718.468445,253.355484 723.720886,273.615906 728.926575,293.696045 
	C733.913513,293.696045 738.502991,293.696045 742.918579,293.696045 
	C742.918579,263.666290 742.918579,233.950531 742.918579,204.069839 
	C738.811218,204.069839 735.004883,204.069839 730.456787,204.491455 
	C730.306030,218.244751 730.185242,231.998489 729.975159,245.750885 
	C729.940308,248.037094 729.516968,250.317352 729.022217,251.764893 
M838.925232,210.676743 
	C832.062012,202.275284 823.007446,201.565414 813.544250,204.207275 
	C804.723572,206.669785 800.862183,213.681381 800.464600,222.317902 
	C799.990173,232.625458 800.133789,242.965729 800.172241,253.291229 
	C800.202637,261.445251 800.073486,269.632996 800.766541,277.741547 
	C801.384338,284.969025 805.081055,290.518646 812.232239,293.336365 
	C828.497864,299.745544 842.783203,290.441376 842.951782,273.068054 
	C843.106873,257.075592 843.253845,241.073044 842.816040,225.091064 
	C842.689392,220.469284 840.532837,215.903122 838.925232,210.676743 
M658.983521,284.488129 
	C659.388000,281.745728 659.792419,279.003326 660.205750,276.200806 
	C665.700928,276.200806 670.812622,276.200806 676.111816,276.200806 
	C677.040466,282.204407 677.944702,288.050323 678.816711,293.687775 
	C683.747314,293.687775 688.142090,293.687775 692.707275,293.687775 
	C687.836426,263.655548 683.020813,233.963440 678.202332,204.253830 
	C671.638000,204.253830 665.388672,204.253830 659.119690,204.253830 
	C654.270325,234.178589 649.461670,263.852203 644.637207,293.623352 
	C649.245544,293.623352 653.462585,293.623352 657.594666,293.623352 
	C658.060486,290.610840 658.466553,287.984558 658.983521,284.488129 
M559.126770,290.345947 
	C560.089722,291.566071 560.944946,293.711548 562.035095,293.838409 
	C565.788452,294.275116 569.623840,294.006348 573.758789,294.006348 
	C568.851318,263.749817 564.017090,233.944778 559.186890,204.164780 
	C552.625000,204.164780 546.494568,204.164780 540.136536,204.164780 
	C535.292114,234.060089 530.469177,263.822723 525.622925,293.729065 
	C530.276367,293.729065 534.360657,293.729065 538.529907,293.729065 
	C539.460266,287.671722 540.351685,281.868103 541.228943,276.156982 
	C546.822327,276.156982 551.793396,276.156982 557.157654,276.156982 
	C557.788208,280.650635 558.406494,285.057495 559.126770,290.345947 
M392.865448,238.589554 
	C390.954224,227.126022 389.042999,215.662491 387.147827,204.295319 
	C380.600677,204.295319 374.356812,204.295319 368.111969,204.295319 
	C363.259308,234.244156 358.454224,263.899231 353.615601,293.761322 
	C358.191223,293.761322 362.279938,293.761322 366.516144,293.761322 
	C367.442902,287.744049 368.337677,281.934662 369.205536,276.299988 
	C374.850708,276.299988 379.926880,276.299988 385.162201,276.299988 
	C386.061096,282.287415 386.921234,288.016846 387.789215,293.798615 
	C392.549561,293.798615 396.995209,293.798615 401.684418,293.798615 
	C398.756287,275.521759 395.866852,257.486481 392.865448,238.589554 
M307.277222,251.499863 
	C307.520020,260.808197 307.180939,270.178497 308.164124,279.407959 
	C309.212494,289.249451 316.873474,294.866791 327.544861,295.010101 
	C338.698273,295.159882 346.361115,289.858612 347.922607,280.033112 
	C348.924194,273.730652 348.786072,267.247070 349.175079,260.565369 
	C344.237579,260.565369 340.164978,260.565369 336.251953,260.565369 
	C335.992767,260.916412 335.809998,261.048584 335.807098,261.184570 
	C335.715546,265.502106 335.711639,269.822662 335.546997,274.137146 
	C335.340302,279.554871 333.156586,282.028778 328.710083,282.114166 
	C323.832092,282.207825 321.509308,279.892120 321.471375,274.133331 
	C321.360565,257.316254 321.355957,240.497421 321.477417,223.680481 
	C321.517120,218.183548 323.772156,215.923340 328.397186,215.880692 
	C332.959290,215.838623 335.288239,218.239456 335.530762,223.550125 
	C335.687927,226.991638 335.560364,230.446167 335.560364,233.969055 
	C340.210083,233.969055 344.306305,233.969055 348.758453,233.969055 
	C348.758453,229.781723 349.091522,225.792801 348.696716,221.877274 
	C347.454071,209.552658 340.411346,203.084976 328.540710,202.989792 
	C315.984406,202.889114 308.831696,208.822067 307.752655,221.561142 
	C306.940277,231.151993 307.389526,240.849701 307.277222,251.499863 
M877.347900,294.094910 
	C884.673401,292.575378 889.045837,287.756195 890.718262,280.847351 
	C893.320312,270.098358 891.860535,259.933472 884.050049,251.507416 
	C879.533569,246.634964 874.585144,242.165207 869.892151,237.453491 
	C865.952209,233.497864 863.812073,228.729172 864.122681,223.082962 
	C864.386047,218.295670 866.912964,215.845352 871.236816,215.873367 
	C875.595825,215.901596 877.885437,218.304962 878.124817,223.208252 
	C878.212036,224.994110 878.138855,226.787796 878.138855,228.775940 
	C882.744690,228.775940 886.941223,228.775940 891.560791,228.775940 
	C891.353699,225.312912 891.393433,222.155029 890.938232,219.070190 
	C889.489319,209.252396 882.569885,203.341400 872.392334,202.991699 
	C860.858887,202.595428 853.348511,207.685242 850.997070,217.553131 
	C848.452332,228.232407 850.880493,237.722168 858.328369,245.729141 
	C862.967773,250.716888 868.083313,255.258423 872.831665,260.149231 
	C876.918762,264.359100 878.160217,269.688934 877.695801,275.353058 
	C877.310913,280.047241 874.645569,282.133698 870.127136,282.131500 
	C865.473999,282.129211 863.615845,279.323486 863.166077,275.278259 
	C862.894531,272.836212 863.116028,270.339325 863.116028,267.710480 
	C858.523010,267.710480 854.331787,267.710480 850.178162,267.710480 
	C848.647766,288.178131 858.680176,298.132233 877.347900,294.094910 
M639.414978,222.934601 
	C639.295349,221.776672 639.218384,220.612473 639.049500,219.461777 
	C637.567200,209.362228 630.672546,203.313812 620.297913,202.991348 
	C608.545349,202.626068 601.163940,207.822754 598.870178,218.131882 
	C596.527344,228.662079 599.067322,237.962402 606.389893,245.797409 
	C611.041321,250.774338 616.146118,255.324722 620.886292,260.222504 
	C624.968445,264.440308 626.180054,269.781616 625.680847,275.442200 
	C625.268799,280.113159 622.575378,282.166779 618.036926,282.126648 
	C613.367981,282.085327 611.586548,279.220703 611.158020,275.189209 
	C610.899536,272.757538 611.110474,270.275940 611.110474,267.569824 
	C606.564209,267.569824 602.483948,267.569824 597.569458,267.569824 
	C598.036865,272.267090 598.006165,276.770142 599.006897,281.030914 
	C601.203247,290.382446 608.113403,295.052612 618.710876,295.008942 
	C629.323303,294.965210 636.735962,289.825500 638.808594,280.618713 
	C641.243286,269.803345 639.719727,259.704681 631.895874,251.319244 
	C627.363037,246.461075 622.397461,242.009521 617.726624,237.276291 
	C613.666565,233.161926 611.531982,228.155258 612.203369,222.349228 
	C612.673889,218.280228 614.858765,215.668533 619.479187,215.847244 
	C623.823914,216.015320 625.713501,218.501892 626.070679,222.453888 
	C626.258911,224.537628 626.103943,226.652390 626.103943,228.884094 
	C630.807800,228.884094 634.900024,228.884094 639.426819,228.884094 
	C639.426819,227.057556 639.426819,225.423706 639.414978,222.934601 
M476.263580,215.946487 
	C484.105957,217.300934 481.505768,223.859879 482.403809,229.093933 
	C484.668762,229.093933 486.791779,229.093933 488.914825,229.093933 
	C490.998749,229.093933 493.082672,229.093933 495.584259,229.093933 
	C495.353180,225.284485 495.390808,222.124557 494.931885,219.038452 
	C493.471954,209.221649 486.550446,203.329575 476.358887,202.991531 
	C464.822021,202.608871 457.339691,207.699722 454.990997,217.587036 
	C452.453003,228.271164 454.899323,237.753769 462.352325,245.755463 
	C466.995392,250.740372 472.107941,255.284805 476.853546,260.178436 
	C480.939453,264.391754 482.168182,269.726654 481.689606,275.389526 
	C481.293396,280.077209 478.619263,282.147583 474.089600,282.129456 
	C469.429749,282.110809 467.602936,279.280914 467.162537,275.240662 
	C466.896820,272.802856 467.113678,270.312439 467.113678,267.729065 
	C462.496918,267.729065 458.312500,267.729065 453.499481,267.729065 
	C453.999329,272.467468 454.012634,276.839417 454.989014,280.984497 
	C457.163269,290.215057 463.915985,294.934845 474.164124,295.008942 
	C484.928436,295.086761 492.446136,290.252472 494.671906,281.144409 
	C497.296478,270.404449 495.986603,260.214600 488.242126,251.736252 
	C483.650604,246.709641 478.545135,242.155777 473.753571,237.307526 
	C469.964264,233.473389 467.837982,228.836487 468.133301,223.381241 
	C468.376251,218.893890 470.233246,215.676712 476.263580,215.946487 
M407.639099,215.315094 
	C403.923431,227.420532 406.661774,237.970154 415.437714,246.963104 
	C419.850861,251.485352 424.530151,255.748230 428.932587,260.280426 
	C432.752167,264.212585 433.966919,269.201721 433.742584,274.526276 
	C433.527771,279.623749 431.018463,282.114624 426.456146,282.123657 
	C421.800568,282.132874 419.406830,279.741241 419.117218,274.611542 
	C418.988861,272.337646 419.095581,270.050507 419.095581,267.588470 
	C414.491577,267.588470 410.411346,267.588470 405.537537,267.588470 
	C406.025391,272.330841 406.015625,276.845184 407.027161,281.117737 
	C409.195709,290.277130 416.031311,294.964478 426.306183,295.008942 
	C437.023560,295.055328 444.546906,290.129822 446.715820,281.005768 
	C449.272827,270.249115 447.925446,260.073578 440.145447,251.621964 
	C435.533142,246.611496 430.423798,242.062164 425.649841,237.195694 
	C421.600769,233.068100 419.499054,228.037277 420.215332,222.235580 
	C420.719727,218.150085 422.990784,215.621109 427.596283,215.855835 
	C431.964142,216.078400 433.753723,218.640884 434.082764,222.572403 
	C434.256439,224.647934 434.113434,226.749939 434.113434,228.832932 
	C438.890747,228.832932 442.979401,228.832932 447.031097,228.832932 
	C448.462067,215.598053 443.858673,206.656769 434.404633,203.992477 
	C422.575226,200.658768 412.787384,204.564957 407.639099,215.315094 
M779.217590,276.499176 
	C779.217590,256.729736 779.217590,236.960281 779.217590,216.770966 
	C784.408386,216.770966 789.007263,216.770966 793.653687,216.770966 
	C793.653687,212.292984 793.653687,208.248947 793.653687,204.182953 
	C779.211792,204.182953 765.100586,204.182953 750.864685,204.182953 
	C750.864685,208.465927 750.864685,212.552902 750.864685,217.071442 
	C755.746582,217.071442 760.336975,217.071442 765.329163,217.071442 
	C765.329163,242.912064 765.329163,268.321075 765.329163,293.723267 
	C770.174011,293.723267 774.592346,293.723267 779.217590,293.723267 
	C779.217590,288.126556 779.217590,282.812714 779.217590,276.499176 
M504.220184,293.130280 
	C508.843353,293.514008 513.466553,293.897736 518.047607,294.277954 
	C518.047607,263.682465 518.047607,234.071152 518.047607,204.376190 
	C513.347290,204.376190 508.822693,204.376190 504.148773,204.376190 
	C504.148773,233.900681 504.148773,263.041016 504.220184,293.130280 
M223.910751,438.700806 
	C222.645157,436.777466 222.634064,436.782959 220.950378,441.058533 
	C221.879913,440.482513 222.809433,439.906494 223.910751,438.700806 
M147.140762,377.142975 
	C147.258316,377.589508 147.340866,378.051941 147.528732,378.466583 
	C147.559219,378.533844 148.056732,378.389496 148.338394,378.342987 
	C148.044403,377.821167 147.750397,377.299316 147.140762,377.142975 
M196.635880,378.320282 
	C197.057419,378.100311 197.514694,377.923615 197.873123,377.627319 
	C197.953751,377.560669 197.689316,377.076569 197.583755,376.784668 
	C197.285889,377.133759 196.988022,377.482819 196.635880,378.320282 
M122.727486,400.176605 
	C122.618340,400.026093 122.509186,399.875549 122.400032,399.725037 
	C122.421501,399.933380 122.442970,400.141724 122.727486,400.176605 
z"/>
<path d="M94.858643,297.003418 
	C94.652893,291.516479 94.455162,286.029266 94.239418,280.542725 
	C93.947304,273.113770 96.452545,267.448059 103.418701,263.764923 
	C114.461594,257.926300 125.196892,251.506989 136.221542,245.632141 
	C139.199173,244.045380 142.728104,243.452942 146.043243,242.547852 
	C153.926254,240.395630 155.739700,237.690704 153.810684,229.748596 
	C153.531387,228.598602 151.318665,227.227310 149.953812,227.174789 
	C147.055344,227.063263 144.130463,227.983582 141.207977,228.039429 
	C138.950226,228.082565 136.024719,228.223022 134.548615,226.966385 
	C131.291458,224.193558 127.727318,222.621948 123.913406,220.885803 
	C121.147934,219.626907 119.849091,215.146194 117.275215,211.134064 
	C110.823212,210.016251 110.740242,209.627762 108.654610,201.910263 
	C107.990692,199.453552 106.029373,196.421112 103.866760,195.481216 
	C98.756310,193.260117 96.614182,189.723373 96.963867,184.562241 
	C97.223389,180.731888 95.984756,178.573090 92.251320,177.200348 
	C87.294525,175.377808 88.604630,171.008224 89.620979,167.504578 
	C90.591095,164.160324 90.337685,162.112289 87.345978,159.830902 
	C82.377762,156.042297 82.351013,151.791107 85.524956,146.413391 
	C86.546371,144.682755 86.814766,141.258453 85.769096,139.790009 
	C82.562691,135.287216 84.493141,132.687180 87.959663,129.952789 
	C88.631096,129.423172 89.244102,127.692238 88.898026,127.174309 
	C85.439606,121.998550 85.668030,119.080666 91.215126,116.297485 
	C94.515060,114.641785 93.964859,113.128258 92.487900,111.098053 
	C89.895866,107.535065 90.828186,101.332634 94.453003,98.847145 
	C95.975075,97.803474 97.391937,96.606377 98.802666,95.520569 
	C94.829018,87.395676 98.257141,82.728127 108.011414,81.743408 
	C109.018410,77.803452 109.695869,73.968025 110.995613,70.356560 
	C112.764145,65.442505 117.297867,65.817505 121.065910,65.815964 
	C122.462738,62.438961 123.016273,58.570267 125.240120,56.471058 
	C127.264328,54.560303 131.102417,54.571125 134.776581,53.560001 
	C134.813278,53.456264 135.257843,52.577305 135.430557,51.647827 
	C136.314896,46.888962 139.175049,45.198166 143.857895,45.759541 
	C146.500595,46.076344 148.870285,46.498672 150.525940,42.754852 
	C151.175797,41.285336 156.369888,41.778194 159.503860,41.473495 
	C161.185181,41.310032 163.278656,41.972542 164.512512,41.194309 
	C170.805008,37.225403 173.264130,37.555843 177.414017,43.411766 
	C179.948822,41.823948 182.396286,39.161240 185.011169,38.985165 
	C187.406143,38.823891 189.981934,41.348301 193.196655,43.075348 
	C198.825104,39.784760 202.297287,40.675999 207.157913,47.393848 
	C207.864471,48.370377 209.690628,49.285011 210.804565,49.094322 
	C216.952957,48.041809 219.339569,52.147530 221.785568,56.452904 
	C222.328827,57.409130 223.288971,58.604160 224.229156,58.782509 
	C230.621475,59.995064 232.754486,61.918472 234.209854,68.244873 
	C234.394943,69.049484 234.754150,69.814041 235.091492,70.762444 
	C235.868011,70.842987 236.691895,71.087669 237.468903,70.983353 
	C242.769379,70.271660 245.366943,71.977310 245.205917,77.885117 
	C245.133362,80.546860 246.353134,83.072548 250.246002,84.330460 
	C255.624207,86.068344 258.883240,91.588058 255.307755,98.902313 
	C259.886414,102.876923 261.698608,107.712517 261.172882,114.022041 
	C260.911926,117.153847 263.234497,120.484337 264.299286,123.753914 
	C264.594482,124.660385 264.842529,125.729897 264.647247,126.622971 
	C263.786469,130.559921 263.106079,133.899734 265.160828,138.278824 
	C266.528076,141.192780 263.277435,146.273529 261.962708,150.839386 
	C266.572662,155.313828 268.258148,159.155273 261.394714,165.194962 
	C259.369019,166.977554 258.033752,168.815674 258.957520,172.236847 
	C261.082550,180.106674 259.521301,182.344452 250.346466,187.495575 
	C252.672821,195.752518 252.255127,196.376297 244.716370,201.195297 
	C243.327271,202.083252 243.052032,204.696457 242.235046,206.500839 
	C241.106583,208.993118 240.457428,211.983032 238.638504,213.787720 
	C237.330734,215.085266 234.446823,214.794266 231.213211,215.413483 
	C231.181473,215.517578 230.574692,216.975052 230.305527,218.492432 
	C229.586685,222.544678 227.329834,224.147034 223.175644,224.263443 
	C220.820938,224.329453 218.567078,226.163544 216.158707,226.601715 
	C213.033768,227.170273 209.790497,227.410446 206.616135,227.295532 
	C203.398071,227.179031 200.207367,226.413879 196.994781,226.012009 
	C192.537521,225.454437 191.164993,228.039413 190.991257,231.929520 
	C190.615616,240.341263 190.795197,239.754776 198.549301,242.505127 
	C206.340866,245.268738 213.720886,249.239899 221.168823,252.910034 
	C227.162003,255.863312 232.941574,259.247040 238.897980,262.278564 
	C247.913635,266.867126 252.163773,273.792755 250.563889,284.117859 
	C249.955566,288.043854 250.160095,292.095825 249.976074,296.993958 
	C249.364487,312.263672 248.770981,326.629822 248.177444,340.995972 
	C247.086761,370.777985 245.999100,400.560089 244.901428,430.341827 
	C244.772629,433.836700 244.959961,437.403809 244.281891,440.793640 
	C243.913071,442.637451 242.030380,444.178375 240.830505,445.855896 
	C239.643936,444.121887 237.669830,442.494385 237.418365,440.634003 
	C236.662186,435.039459 236.549057,429.355743 236.235306,423.704010 
	C234.481705,392.115295 232.780487,360.523499 230.872696,328.944122 
	C230.789368,327.564728 228.858078,326.296997 227.787598,324.977234 
	C226.368042,326.233978 223.892075,327.354431 223.709396,328.770691 
	C222.858963,335.364105 222.594025,342.036560 222.209793,348.685944 
	C221.354828,363.481537 220.553711,378.280273 219.641556,393.831665 
	C219.623123,395.028442 219.693787,395.471313 219.574768,396.273804 
	C219.281158,399.756073 219.177216,402.878754 218.951782,406.410278 
	C218.606674,415.878357 218.383087,424.937561 218.159485,433.996765 
	C218.016907,436.484802 218.303711,439.105713 217.588440,441.416473 
	C217.067764,443.098572 215.224045,444.371124 213.970200,445.826263 
	C212.906052,444.409363 211.028351,443.059601 210.905075,441.565125 
	C209.811203,428.303070 209.001907,415.017029 208.161133,401.734741 
	C207.446564,390.446320 206.801422,379.153503 206.082336,366.974243 
	C205.363358,353.791534 204.776352,341.490784 203.894989,329.211182 
	C203.789764,327.745422 202.310104,325.489563 201.069336,325.176117 
	C198.350845,324.489349 196.928375,326.245392 196.771820,329.163330 
	C195.951950,344.444183 195.035233,359.719849 194.152176,374.997314 
	C193.096436,395.607727 192.036789,416.217926 190.992340,436.828888 
	C190.908081,438.491608 191.376907,440.347382 190.779404,441.774689 
	C190.123611,443.341278 188.529831,444.515259 187.344742,445.860291 
	C186.220276,444.477997 184.248840,443.175903 184.109070,441.700317 
	C183.214264,432.254700 182.677155,422.773590 182.107681,413.299042 
	C181.298386,399.835022 180.562561,386.366608 179.725830,372.034210 
	C178.799408,357.267395 177.881393,343.369720 177.136383,329.462769 
	C176.984772,326.633179 176.789261,324.670898 173.100815,324.915863 
	C169.935623,325.126068 167.127533,324.921234 166.905762,329.314758 
	C166.187286,343.548492 165.301697,357.773834 164.480469,372.002411 
	C163.674835,389.792267 162.891190,407.583160 162.050095,425.371338 
	C161.798401,430.694641 161.634109,436.044861 160.900848,441.309082 
	C160.671829,442.953278 158.708252,444.355865 157.538712,445.869049 
	C156.375427,444.316559 154.298340,442.826843 154.186646,441.202057 
	C152.644836,418.771393 151.373184,396.322144 150.024872,373.091095 
	C149.412994,357.996185 148.778366,343.688904 148.238602,329.378052 
	C148.131958,326.550751 146.936264,324.502686 144.136490,325.159546 
	C142.569641,325.527100 140.372360,327.664398 140.270584,329.130096 
	C139.256042,343.739532 138.619278,358.375214 137.875870,373.003479 
	C137.753677,373.423889 137.631485,373.844269 137.420807,374.797791 
	C137.349899,375.886566 137.367462,376.442261 137.385010,376.997925 
	C136.579346,395.087585 135.791809,413.178101 134.952774,431.266205 
	C134.783432,434.917084 134.682724,438.608551 134.010162,442.179596 
	C133.753174,443.544098 131.981171,444.623260 130.899567,445.832458 
	C129.734558,444.662170 127.943069,443.671295 127.544952,442.281311 
	C126.874512,439.940582 127.088516,437.346466 126.887123,433.994263 
	C126.205559,424.086761 125.567368,415.043945 124.929176,406.001099 
	C123.840775,380.747498 122.763062,355.493439 121.648987,330.240967 
	C121.525116,327.433197 121.024559,324.812622 117.227570,324.966278 
	C113.720886,325.108215 113.408356,327.664276 113.275650,330.223541 
	C111.828621,358.130768 110.411476,386.039581 109.003517,413.948792 
	C108.559364,422.753021 108.371155,431.577942 107.591438,440.351257 
	C107.420532,442.274323 105.228035,444.017700 103.966522,445.843811 
	C102.818390,443.939056 100.761269,442.081635 100.659271,440.122406 
	C99.257950,413.205475 98.131660,386.274292 96.923668,359.347198 
	C96.662674,353.529480 96.345757,347.714233 96.042038,340.984924 
	C95.639206,325.715790 95.248924,311.359589 94.858643,297.003418 
z"/>
<path d="M731.198608,204.069839 
	C735.004883,204.069839 738.811218,204.069839 742.918579,204.069839 
	C742.918579,233.950531 742.918579,263.666290 742.918579,293.696045 
	C738.502991,293.696045 733.913513,293.696045 728.926575,293.696045 
	C723.720886,273.615906 718.468445,253.355484 713.216003,233.095047 
	C712.830627,233.160355 712.445190,233.225662 712.059814,233.290970 
	C712.059814,253.290375 712.059814,273.289795 712.059814,293.647827 
	C707.624268,293.647827 703.599792,293.647827 699.355103,293.647827 
	C699.355103,263.945160 699.355103,234.363037 699.355103,204.385590 
	C704.995972,204.385590 710.722534,204.385590 716.932983,204.385590 
	C720.916748,219.998444 724.969482,235.881668 729.122437,252.474548 
	C729.571167,254.189896 729.919617,255.195602 730.268005,256.201294 
	C730.578247,256.167786 730.888428,256.134277 731.198608,256.100800 
	C731.198608,238.757141 731.198608,221.413498 731.198608,204.069839 
z"/>
<path d="M839.116089,210.994110 
	C840.532837,215.903122 842.689392,220.469284 842.816040,225.091064 
	C843.253845,241.073044 843.106873,257.075592 842.951782,273.068054 
	C842.783203,290.441376 828.497864,299.745544 812.232239,293.336365 
	C805.081055,290.518646 801.384338,284.969025 800.766541,277.741547 
	C800.073486,269.632996 800.202637,261.445251 800.172241,253.291229 
	C800.133789,242.965729 799.990173,232.625458 800.464600,222.317902 
	C800.862183,213.681381 804.723572,206.669785 813.544250,204.207275 
	C823.007446,201.565414 832.062012,202.275284 839.116089,210.994110 
M819.876282,215.963608 
	C814.984314,216.919662 814.277771,220.783493 814.249817,224.687820 
	C814.131836,241.180038 814.130615,257.674042 814.238464,274.166382 
	C814.273682,279.554504 816.946716,282.180847 821.669556,282.138428 
	C826.403381,282.095886 828.871521,279.505676 828.898743,273.994354 
	C828.980896,257.335114 828.986694,240.674896 828.896851,224.015732 
	C828.864990,218.119720 826.775879,216.221207 819.876282,215.963608 
z"/>
<path d="M658.928101,284.923218 
	C658.466553,287.984558 658.060486,290.610840 657.594666,293.623352 
	C653.462585,293.623352 649.245544,293.623352 644.637207,293.623352 
	C649.461670,263.852203 654.270325,234.178589 659.119690,204.253830 
	C665.388672,204.253830 671.638000,204.253830 678.202332,204.253830 
	C683.020813,233.963440 687.836426,263.655548 692.707275,293.687775 
	C688.142090,293.687775 683.747314,293.687775 678.816711,293.687775 
	C677.944702,288.050323 677.040466,282.204407 676.111816,276.200806 
	C670.812622,276.200806 665.700928,276.200806 660.205750,276.200806 
	C659.792419,279.003326 659.388000,281.745728 658.928101,284.923218 
M673.789551,258.372101 
	C672.160400,247.206161 670.531311,236.040222 668.902161,224.874283 
	C668.322754,224.940857 667.743408,225.007446 667.164001,225.074036 
	C665.376770,237.914276 663.589539,250.754517 661.775513,263.787598 
	C666.201965,263.787598 670.104553,263.787598 674.298218,263.787598 
	C674.151917,262.094238 674.027100,260.649384 673.789551,258.372101 
z"/>
<path d="M559.075806,289.905151 
	C558.406494,285.057495 557.788208,280.650635 557.157654,276.156982 
	C551.793396,276.156982 546.822327,276.156982 541.228943,276.156982 
	C540.351685,281.868103 539.460266,287.671722 538.529907,293.729065 
	C534.360657,293.729065 530.276367,293.729065 525.622925,293.729065 
	C530.469177,263.822723 535.292114,234.060089 540.136536,204.164780 
	C546.494568,204.164780 552.625000,204.164780 559.186890,204.164780 
	C564.017090,233.944778 568.851318,263.749817 573.758789,294.006348 
	C569.623840,294.006348 565.788452,294.275116 562.035095,293.838409 
	C560.944946,293.711548 560.089722,291.566071 559.075806,289.905151 
M550.242188,264.015533 
	C551.854675,264.015533 553.467102,264.015533 555.603516,264.015533 
	C553.649719,250.585358 551.781494,237.743774 549.913269,224.902176 
	C549.330933,224.954926 548.748596,225.007675 548.166260,225.060410 
	C546.377686,237.922653 544.589050,250.784897 542.749207,264.015533 
	C545.376160,264.015533 547.354553,264.015533 550.242188,264.015533 
z"/>
<path d="M392.921448,239.020370 
	C395.866852,257.486481 398.756287,275.521759 401.684418,293.798615 
	C396.995209,293.798615 392.549561,293.798615 387.789215,293.798615 
	C386.921234,288.016846 386.061096,282.287415 385.162201,276.299988 
	C379.926880,276.299988 374.850708,276.299988 369.205536,276.299988 
	C368.337677,281.934662 367.442902,287.744049 366.516144,293.761322 
	C362.279938,293.761322 358.191223,293.761322 353.615601,293.761322 
	C358.454224,263.899231 363.259308,234.244156 368.111969,204.295319 
	C374.356812,204.295319 380.600677,204.295319 387.147827,204.295319 
	C389.042999,215.662491 390.954224,227.126022 392.921448,239.020370 
M379.670349,235.786331 
	C378.997528,232.145462 378.324738,228.504608 377.651917,224.863754 
	C377.157501,224.935593 376.663086,225.007431 376.168671,225.079285 
	C374.379028,237.876099 372.589417,250.672928 370.767792,263.698547 
	C375.103088,263.698547 379.154510,263.698547 383.443390,263.698547 
	C382.198120,254.457764 380.998932,245.559113 379.670349,235.786331 
z"/>
<path d="M307.277222,250.999847 
	C307.389526,240.849701 306.940277,231.151993 307.752655,221.561142 
	C308.831696,208.822067 315.984406,202.889114 328.540710,202.989792 
	C340.411346,203.084976 347.454071,209.552658 348.696716,221.877274 
	C349.091522,225.792801 348.758453,229.781723 348.758453,233.969055 
	C344.306305,233.969055 340.210083,233.969055 335.560364,233.969055 
	C335.560364,230.446167 335.687927,226.991638 335.530762,223.550125 
	C335.288239,218.239456 332.959290,215.838623 328.397186,215.880692 
	C323.772156,215.923340 321.517120,218.183548 321.477417,223.680481 
	C321.355957,240.497421 321.360565,257.316254 321.471375,274.133331 
	C321.509308,279.892120 323.832092,282.207825 328.710083,282.114166 
	C333.156586,282.028778 335.340302,279.554871 335.546997,274.137146 
	C335.711639,269.822662 335.715546,265.502106 335.807098,261.184570 
	C335.809998,261.048584 335.992767,260.916412 336.251953,260.565369 
	C340.164978,260.565369 344.237579,260.565369 349.175079,260.565369 
	C348.786072,267.247070 348.924194,273.730652 347.922607,280.033112 
	C346.361115,289.858612 338.698273,295.159882 327.544861,295.010101 
	C316.873474,294.866791 309.212494,289.249451 308.164124,279.407959 
	C307.180939,270.178497 307.520020,260.808197 307.277222,250.999847 
z"/>
<path d="M876.937500,294.185333 
	C858.680176,298.132233 848.647766,288.178131 850.178162,267.710480 
	C854.331787,267.710480 858.523010,267.710480 863.116028,267.710480 
	C863.116028,270.339325 862.894531,272.836212 863.166077,275.278259 
	C863.615845,279.323486 865.473999,282.129211 870.127136,282.131500 
	C874.645569,282.133698 877.310913,280.047241 877.695801,275.353058 
	C878.160217,269.688934 876.918762,264.359100 872.831665,260.149231 
	C868.083313,255.258423 862.967773,250.716888 858.328369,245.729141 
	C850.880493,237.722168 848.452332,228.232407 850.997070,217.553131 
	C853.348511,207.685242 860.858887,202.595428 872.392334,202.991699 
	C882.569885,203.341400 889.489319,209.252396 890.938232,219.070190 
	C891.393433,222.155029 891.353699,225.312912 891.560791,228.775940 
	C886.941223,228.775940 882.744690,228.775940 878.138855,228.775940 
	C878.138855,226.787796 878.212036,224.994110 878.124817,223.208252 
	C877.885437,218.304962 875.595825,215.901596 871.236816,215.873367 
	C866.912964,215.845352 864.386047,218.295670 864.122681,223.082962 
	C863.812073,228.729172 865.952209,233.497864 869.892151,237.453491 
	C874.585144,242.165207 879.533569,246.634964 884.050049,251.507416 
	C891.860535,259.933472 893.320312,270.098358 890.718262,280.847351 
	C889.045837,287.756195 884.673401,292.575378 876.937500,294.185333 
z"/>
<path d="M639.420898,223.362228 
	C639.426819,225.423706 639.426819,227.057556 639.426819,228.884094 
	C634.900024,228.884094 630.807800,228.884094 626.103943,228.884094 
	C626.103943,226.652390 626.258911,224.537628 626.070679,222.453888 
	C625.713501,218.501892 623.823914,216.015320 619.479187,215.847244 
	C614.858765,215.668533 612.673889,218.280228 612.203369,222.349228 
	C611.531982,228.155258 613.666565,233.161926 617.726624,237.276291 
	C622.397461,242.009521 627.363037,246.461075 631.895874,251.319244 
	C639.719727,259.704681 641.243286,269.803345 638.808594,280.618713 
	C636.735962,289.825500 629.323303,294.965210 618.710876,295.008942 
	C608.113403,295.052612 601.203247,290.382446 599.006897,281.030914 
	C598.006165,276.770142 598.036865,272.267090 597.569458,267.569824 
	C602.483948,267.569824 606.564209,267.569824 611.110474,267.569824 
	C611.110474,270.275940 610.899536,272.757538 611.158020,275.189209 
	C611.586548,279.220703 613.367981,282.085327 618.036926,282.126648 
	C622.575378,282.166779 625.268799,280.113159 625.680847,275.442200 
	C626.180054,269.781616 624.968445,264.440308 620.886292,260.222504 
	C616.146118,255.324722 611.041321,250.774338 606.389893,245.797409 
	C599.067322,237.962402 596.527344,228.662079 598.870178,218.131882 
	C601.163940,207.822754 608.545349,202.626068 620.297913,202.991348 
	C630.672546,203.313812 637.567200,209.362228 639.049500,219.461777 
	C639.218384,220.612473 639.295349,221.776672 639.420898,223.362228 
z"/>
<path d="M475.851349,215.909637 
	C470.233246,215.676712 468.376251,218.893890 468.133301,223.381241 
	C467.837982,228.836487 469.964264,233.473389 473.753571,237.307526 
	C478.545135,242.155777 483.650604,246.709641 488.242126,251.736252 
	C495.986603,260.214600 497.296478,270.404449 494.671906,281.144409 
	C492.446136,290.252472 484.928436,295.086761 474.164124,295.008942 
	C463.915985,294.934845 457.163269,290.215057 454.989014,280.984497 
	C454.012634,276.839417 453.999329,272.467468 453.499481,267.729065 
	C458.312500,267.729065 462.496918,267.729065 467.113678,267.729065 
	C467.113678,270.312439 466.896820,272.802856 467.162537,275.240662 
	C467.602936,279.280914 469.429749,282.110809 474.089600,282.129456 
	C478.619263,282.147583 481.293396,280.077209 481.689606,275.389526 
	C482.168182,269.726654 480.939453,264.391754 476.853546,260.178436 
	C472.107941,255.284805 466.995392,250.740372 462.352325,245.755463 
	C454.899323,237.753769 452.453003,228.271164 454.990997,217.587036 
	C457.339691,207.699722 464.822021,202.608871 476.358887,202.991531 
	C486.550446,203.329575 493.471954,209.221649 494.931885,219.038452 
	C495.390808,222.124557 495.353180,225.284485 495.584259,229.093933 
	C493.082672,229.093933 490.998749,229.093933 488.914825,229.093933 
	C486.791779,229.093933 484.668762,229.093933 482.403809,229.093933 
	C481.505768,223.859879 484.105957,217.300934 475.851349,215.909637 
z"/>
<path d="M407.763672,214.944946 
	C412.787384,204.564957 422.575226,200.658768 434.404633,203.992477 
	C443.858673,206.656769 448.462067,215.598053 447.031097,228.832932 
	C442.979401,228.832932 438.890747,228.832932 434.113434,228.832932 
	C434.113434,226.749939 434.256439,224.647934 434.082764,222.572403 
	C433.753723,218.640884 431.964142,216.078400 427.596283,215.855835 
	C422.990784,215.621109 420.719727,218.150085 420.215332,222.235580 
	C419.499054,228.037277 421.600769,233.068100 425.649841,237.195694 
	C430.423798,242.062164 435.533142,246.611496 440.145447,251.621964 
	C447.925446,260.073578 449.272827,270.249115 446.715820,281.005768 
	C444.546906,290.129822 437.023560,295.055328 426.306183,295.008942 
	C416.031311,294.964478 409.195709,290.277130 407.027161,281.117737 
	C406.015625,276.845184 406.025391,272.330841 405.537537,267.588470 
	C410.411346,267.588470 414.491577,267.588470 419.095581,267.588470 
	C419.095581,270.050507 418.988861,272.337646 419.117218,274.611542 
	C419.406830,279.741241 421.800568,282.132874 426.456146,282.123657 
	C431.018463,282.114624 433.527771,279.623749 433.742584,274.526276 
	C433.966919,269.201721 432.752167,264.212585 428.932587,260.280426 
	C424.530151,255.748230 419.850861,251.485352 415.437714,246.963104 
	C406.661774,237.970154 403.923431,227.420532 407.763672,214.944946 
z"/>
<path d="M779.217590,276.999023 
	C779.217590,282.812714 779.217590,288.126556 779.217590,293.723267 
	C774.592346,293.723267 770.174011,293.723267 765.329163,293.723267 
	C765.329163,268.321075 765.329163,242.912064 765.329163,217.071442 
	C760.336975,217.071442 755.746582,217.071442 750.864685,217.071442 
	C750.864685,212.552902 750.864685,208.465927 750.864685,204.182953 
	C765.100586,204.182953 779.211792,204.182953 793.653687,204.182953 
	C793.653687,208.248947 793.653687,212.292984 793.653687,216.770966 
	C789.007263,216.770966 784.408386,216.770966 779.217590,216.770966 
	C779.217590,236.960281 779.217590,256.729736 779.217590,276.999023 
z"/>
<path d="M504.184479,292.655823 
	C504.148773,263.041016 504.148773,233.900681 504.148773,204.376190 
	C508.822693,204.376190 513.347290,204.376190 518.047607,204.376190 
	C518.047607,234.071152 518.047607,263.682465 518.047607,294.277954 
	C513.466553,293.897736 508.843353,293.514008 504.184479,292.655823 
z"/>

</g>
</svg>